<svg width="24" height="24" viewBox="0 0 24 24" fill="none" xmlns="http://www.w3.org/2000/svg">
<path d="M22.5 13.5H15V18.351C15.0019 19.0608 15.2043 19.7557 15.5839 20.3555C15.9636 20.9553 16.505 21.4356 17.1458 21.741L18.75 22.5L20.3542 21.7402C20.995 21.4348 21.5364 20.9545 21.9161 20.3547C22.2957 19.7549 22.4981 19.0601 22.5 18.3502V13.5ZM18.75 20.8395L17.7877 20.3843C17.4033 20.2012 17.0784 19.9131 16.8506 19.5534C16.6227 19.1937 16.5012 18.7768 16.5 18.351V15H21V18.351C20.9987 18.7767 20.8771 19.1934 20.6492 19.553C20.4214 19.9126 20.0966 20.2005 19.7122 20.3835L18.75 20.8403V20.8395ZM12.75 13.5H3.75C3.35218 13.5 2.97064 13.658 2.68934 13.9393C2.40804 14.2206 2.25 14.6022 2.25 15V18.75C2.25 19.1478 2.40804 19.5294 2.68934 19.8107C2.97064 20.092 3.35218 20.25 3.75 20.25H12.75V18.75H3.75V15H12.75V13.5ZM20.25 3H16.5C16.1022 3 15.7206 3.15804 15.4393 3.43934C15.158 3.72064 15 4.10218 15 4.5V11.25H16.5V4.5H20.25V11.25H21.75V4.5C21.75 4.10218 21.592 3.72064 21.3107 3.43934C21.0294 3.15804 20.6478 3 20.25 3ZM11.25 3H3.75C3.35218 3 2.97064 3.15804 2.68934 3.43934C2.40804 3.72064 2.25 4.10218 2.25 4.5V9.75C2.25 10.1478 2.40804 10.5294 2.68934 10.8107C2.97064 11.092 3.35218 11.25 3.75 11.25H11.25C11.6478 11.25 12.0294 11.092 12.3107 10.8107C12.592 10.5294 12.75 10.1478 12.75 9.75V4.5C12.75 4.10218 12.592 3.72064 12.3107 3.43934C12.0294 3.15804 11.6478 3 11.25 3ZM3.75 9.75V4.5H11.25V9.75H3.75Z" fill="white"/>
</svg>
