<svg width="24" height="25" viewBox="0 0 24 25" fill="none" xmlns="http://www.w3.org/2000/svg">
<path d="M22 12V16C22 19.5 20 21 17 21H7C4 21 2 19.5 2 16V9C2 5.5 4 4 7 4H12" stroke="white" stroke-width="1.5" stroke-miterlimit="10" stroke-linecap="round" stroke-linejoin="round"/>
<path d="M7 9.5L10.13 12C11.16 12.82 12.85 12.82 13.88 12" stroke="white" stroke-width="1.5" stroke-miterlimit="10" stroke-linecap="round" stroke-linejoin="round"/>
<path d="M19.48 3.32L19.76 3.88999C19.9 4.16999 20.25 4.43 20.56 4.49L20.94 4.55C22.08 4.74 22.35 5.58 21.53 6.41L21.18 6.75999C20.95 6.99999 20.82 7.45999 20.89 7.77999L20.94 7.99C21.25 9.37 20.52 9.89999 19.32 9.17999L19.06 9.02999C18.75 8.84999 18.25 8.84999 17.94 9.02999L17.68 9.17999C16.47 9.90999 15.74 9.37 16.06 7.99L16.1099 7.77999C16.1799 7.45999 16.05 6.99999 15.82 6.75999L15.47 6.41C14.65 5.58 14.92 4.74 16.06 4.55L16.44 4.49C16.74 4.44 17.1 4.16999 17.24 3.88999L17.52 3.32C18.06 2.23 18.94 2.23 19.48 3.32Z" stroke="white" stroke-width="1.5" stroke-linecap="round" stroke-linejoin="round"/>
</svg>
