<svg width="24" height="24" viewBox="0 0 24 24" fill="none" xmlns="http://www.w3.org/2000/svg">
<path d="M10.23 21.88C10.16 21.88 10.09 21.88 10.02 21.86C9.43002 21.78 8.92997 21.34 8.65997 20.66L1.94 3.86C1.67 3.19 1.73003 2.54 2.09003 2.07C2.46003 1.6 3.06998 1.38 3.78998 1.48L16.76 3.21C17.11 3.26 17.52 3.46 17.77 3.71L20.9 6.84C21.51 7.46 21.58 8.47 21.04 9.16L11.66 21.1C11.26 21.61 10.75 21.88 10.23 21.88ZM3.46002 2.96C3.34002 2.96 3.28002 2.99 3.27002 3C3.27002 3.01 3.25002 3.12 3.33002 3.31L10.05 20.11C10.13 20.31 10.22 20.38 10.23 20.38C10.24 20.38 10.34 20.34 10.47 20.17L19.85 8.22999C19.92 8.14999 19.91 7.97 19.83 7.9L16.7 4.77C16.68 4.75 16.59 4.71 16.55 4.7L3.59998 2.97C3.54998 2.96 3.50002 2.96 3.46002 2.96Z" fill="white"/>
<path d="M9.99985 21.75C9.97985 21.75 9.94984 21.75 9.92984 21.75C9.51984 21.71 9.20985 21.35 9.24985 20.94L10.2198 10.32L2.50986 3.47001C2.19986 3.19001 2.16986 2.72001 2.44986 2.41001C2.72986 2.10001 3.19986 2.07001 3.50986 2.35001L11.4998 9.45001C11.6798 9.61001 11.7698 9.84001 11.7498 10.08L10.7498 21.08C10.7098 21.46 10.3798 21.75 9.99985 21.75Z" fill="white"/>
<path d="M11.0001 10.75C10.7301 10.75 10.4701 10.6 10.3401 10.35C10.1801 10.06 10.24 9.7 10.47 9.47L16.47 3.47C16.76 3.18 17.2401 3.18 17.5301 3.47C17.8201 3.76 17.8201 4.24 17.5301 4.53L13.2801 8.78L19.8901 7.46C20.3001 7.38 20.6901 7.64 20.7701 8.05C20.8501 8.46 20.5901 8.85 20.1801 8.93L11.1401 10.74C11.1001 10.75 11.0501 10.75 11.0001 10.75Z" fill="white"/>
</svg>
